<svg width="16" height="17" viewBox="0 0 16 17" fill="none" xmlns="http://www.w3.org/2000/svg">
<path d="M15.6601 12.8644L12.0009 9.2054C11.2791 8.4836 10.201 8.34298 9.33229 8.77107L6.00123 5.44014V3.49971L2.00145 0.5L0.00156239 2.4998L3.0014 6.49941H4.94191L8.27298 9.83034C7.848 10.699 7.98549 11.777 8.70733 12.4988L12.3665 16.1578C12.8227 16.6141 13.5602 16.6141 14.0133 16.1578L15.6601 14.5111C16.1132 14.0549 16.1132 13.3175 15.6601 12.8644ZM10.3666 7.53056C11.2509 7.53056 12.0821 7.87428 12.7071 8.49922L13.3133 9.10541C13.807 8.88981 14.2758 8.58983 14.682 8.18362C15.8413 7.02436 16.235 5.39327 15.8663 3.91217C15.7976 3.63094 15.4445 3.53408 15.2382 3.74031L12.9133 6.06508L10.7916 5.71199L10.4385 3.59032L12.7634 1.26555C12.9696 1.05932 12.8696 0.70623 12.5852 0.634362C11.1041 0.268773 9.47291 0.662484 8.31672 1.81862C7.42615 2.70916 7.00742 3.88404 7.0293 5.05581L9.59478 7.62118C9.84789 7.56181 10.1104 7.53056 10.3666 7.53056ZM7.11992 10.0928L5.34814 8.32111L0.585905 13.0863C-0.195302 13.8674 -0.195302 15.1329 0.585905 15.9141C1.36711 16.6953 2.63267 16.6953 3.41387 15.9141L7.27616 12.052C7.03867 11.4302 6.9668 10.7521 7.11992 10.0928ZM2.00145 15.2486C1.58897 15.2486 1.25149 14.9111 1.25149 14.4986C1.25149 14.083 1.58585 13.7487 2.00145 13.7487C2.41705 13.7487 2.75141 14.083 2.75141 14.4986C2.75141 14.9111 2.41705 15.2486 2.00145 15.2486Z" fill="#6B6B6B"/>
</svg>
