<svg width="16" height="16" viewBox="0 0 16 16" fill="none" xmlns="http://www.w3.org/2000/svg">
<path d="M14.1782 6.16989C15.0815 4.78093 14.6878 2.92268 13.2989 2.01937C11.9099 1.11607 10.0517 1.50976 9.14835 2.89872L6.96757 6.25195C6.06426 7.64091 6.45796 9.49916 7.84691 10.4025C9.23587 11.3058 11.0941 10.9121 11.9974 9.52312L14.1782 6.16989Z" stroke="#6B6B6B" stroke-width="2" stroke-linecap="round"/>
<path d="M9.23021 10.1093C10.1335 8.72038 9.73982 6.86214 8.35087 5.95883C6.96191 5.05552 5.10366 5.44921 4.20035 6.83817L2.01957 10.1914C1.11626 11.5804 1.50996 13.4386 2.89891 14.3419C4.28787 15.2452 6.14612 14.8515 7.04943 13.4626L9.23021 10.1093Z" stroke="#6B6B6B" stroke-width="2" stroke-linecap="round"/>
</svg>
